<?xml version="1.0" encoding="UTF-8"?>
<svg width="32" height="32" viewBox="0 0 32 32" fill="none" xmlns="http://www.w3.org/2000/svg">
  <!-- Gradient definitions -->
  <defs>
    <linearGradient id="iconGradient" x1="0%" y1="0%" x2="100%" y2="100%">
      <stop offset="0%" style="stop-color:#4F46E5;stop-opacity:1" />
      <stop offset="100%" style="stop-color:#9333EA;stop-opacity:1" />
    </linearGradient>
    
    <!-- Glow effects -->
    <filter id="glow">
      <feGaussianBlur in="SourceGraphic" stdDeviation="1" />
      <feColorMatrix type="matrix" 
        values="0 0 0 0 0.247 
                0 0 0 0 0.247 
                0 0 0 0 0.922 
                0 0 0 0.5 0"/>
      <feBlend in="SourceGraphic" in2="glow" mode="normal"/>
    </filter>

    <filter id="starGlow">
      <feGaussianBlur in="SourceGraphic" stdDeviation="0.5" />
      <feColorMatrix type="matrix" 
        values="0 0 0 0 1   
                0 0 0 0 0.8 
                0 0 0 0 0.2 
                0 0 0 0.8 0"/>
      <feBlend in="SourceGraphic" in2="glow" mode="normal"/>
    </filter>

    <!-- Blur effect for background -->
    <filter id="blur">
      <feGaussianBlur stdDeviation="0.5" />
    </filter>
  </defs>

  <!-- Backdrop with blur -->
  <circle 
    cx="16" 
    cy="16" 
    r="16" 
    fill="white" 
    fill-opacity="0.7"
    filter="url(#blur)"
  />

  <!-- Book icon with check -->
  <g transform="translate(6, 6) scale(0.625)">
    <path 
      d="M2 6C2 4.89543 2.89543 4 4 4H28C29.1046 4 30 4.89543 30 6V26C30 27.1046 29.1046 28 28 28H4C2.89543 28 2 27.1046 2 26V6Z"
      fill="url(#iconGradient)"
      filter="url(#glow)"
    />
    
    <path 
      d="M16 4V28"
      stroke="white"
      stroke-width="0.5"
      stroke-opacity="0.6"
    />

    <path 
      d="M10 16L14 20L22 12"
      stroke="white"
      stroke-width="3"
      stroke-linecap="round"
      stroke-linejoin="round"
    />
  </g>

  <!-- Star in top-right corner -->
  <path
    d="M24 4L25.5 7L29 7.5L26.5 9.5L27 13L24 11L21 13L21.5 9.5L19 7.5L22.5 7L24 4Z"
    fill="#FFC107"
    filter="url(#starGlow)"
  />

  <!-- Graduation cap in top-left corner -->
  <g transform="translate(4, 4) scale(0.4)">
    <path
      d="M12 2L20 6L12 10L4 6L12 2Z"
      fill="#4F46E5"
      stroke="white"
      stroke-width="0.5"
    />
    <path
      d="M7 8V12L12 14L17 12V8L12 10L7 8Z"
      fill="#4F46E5"
      stroke="white"
      stroke-width="0.5"
    />
  </g>
</svg>